<?xml version="1.0"?>
<svg width="330" height="115" xmlns="http://www.w3.org/2000/svg" xmlns:svg="http://www.w3.org/2000/svg" version="1.1">
 <g class="layer">
  <title>Layer 1</title>
  <g id="Layer_1">
   <path d="m110,18.11c-4.83,2.21 -9.8,4.09 -14.88,5.63c-8.75,-13.69 -23.87,-21.97 -40.12,-21.97c-16.24,0 -31.37,8.28 -40.12,21.97c-5.06,-1.59 -10.03,-3.47 -14.88,-5.63c4.29,3.14 8.39,6.52 12.29,10.14c-7.01,14.34 -6.39,31.23 1.65,45.02c8.03,13.78 22.42,22.65 38.35,23.62c1.24,5.39 2.15,10.84 2.71,16.34c0.56,-5.5 1.47,-10.95 2.71,-16.34c15.92,-0.94 30.31,-9.78 38.35,-23.55c8.04,-13.77 8.66,-30.65 1.65,-44.97c3.89,-3.66 8,-7.08 12.29,-10.26zm-55,19.27c9.8,0.15 22.62,-2.49 28.45,-3.83c-4.21,4.82 -13.53,15.79 -17.24,22.61c-3.79,7 -9.09,21 -11.23,26.86c-2.21,-6 -7.75,-20.78 -11.17,-27.23c-3.42,-6.45 -13,-17.47 -17.31,-22.3c5.85,1.24 18.84,3.75 28.5,3.89zm0,-28.83c13.21,0 25.59,6.41 33.23,17.18c-1.54,0.42 -3.09,0.83 -4.72,1.17c-9.37,2.04 -18.93,3.05 -28.51,3c-9.59,0.05 -19.16,-1 -28.51,-3.15c-1.61,-0.34 -3.15,-0.69 -4.68,-1.08c7.64,-10.74 20.01,-17.12 33.19,-17.12zm-40.78,40.77c0,-5.48 1.12,-10.9 3.28,-15.94l3.24,3.33c6.22,6.98 11.77,14.52 16.57,22.54c4.73,8.15 8.61,16.76 11.6,25.69c0.59,1.6 1.06,3.27 1.54,4.9c-20.62,-2.34 -36.21,-19.77 -36.23,-40.52zm45.33,40.52c0.48,-1.63 1,-3.3 1.54,-4.9c2.96,-8.91 6.86,-17.48 11.61,-25.58c4.8,-8.02 10.34,-15.56 16.56,-22.54c1.1,-1.18 2.19,-2.29 3.29,-3.39c5.02,11.85 4.15,25.37 -2.35,36.48c-6.5,11.11 -17.86,18.5 -30.65,19.93z" fill="#000000" id="svg_1"/>
   <path d="m220,18.11c-4.83,2.21 -9.8,4.09 -14.88,5.63c-8.75,-13.69 -23.87,-21.97 -40.12,-21.97c-16.24,0 -31.37,8.28 -40.12,21.97c-5.06,-1.59 -10.03,-3.47 -14.88,-5.63c4.29,3.14 8.39,6.52 12.29,10.14c-7.01,14.34 -6.39,31.23 1.65,45.02c8.03,13.78 22.42,22.65 38.35,23.62c1.24,5.39 2.15,10.84 2.71,16.34c0.56,-5.5 1.47,-10.95 2.71,-16.34c15.92,-0.94 30.31,-9.78 38.35,-23.55c8.04,-13.77 8.66,-30.65 1.65,-44.97c3.89,-3.66 8,-7.08 12.29,-10.26zm-55,19.27c9.8,0.15 22.62,-2.49 28.45,-3.83c-4.21,4.82 -13.53,15.79 -17.24,22.61c-3.79,7 -9.09,21 -11.23,26.86c-2.21,-6 -7.75,-20.78 -11.17,-27.23c-3.42,-6.45 -13,-17.47 -17.31,-22.3c5.85,1.24 18.84,3.75 28.5,3.89zm0,-28.83c13.21,0 25.59,6.41 33.23,17.18c-1.54,0.42 -3.09,0.83 -4.72,1.17c-9.37,2.04 -18.93,3.05 -28.51,3c-9.59,0.05 -19.16,-1 -28.51,-3.15c-1.61,-0.34 -3.15,-0.69 -4.68,-1.08c7.64,-10.74 20.01,-17.12 33.19,-17.12zm-40.78,40.77c0,-5.48 1.12,-10.9 3.28,-15.94l3.24,3.33c6.22,6.98 11.77,14.52 16.57,22.54c4.73,8.15 8.61,16.76 11.6,25.69c0.59,1.6 1.06,3.27 1.54,4.9c-20.62,-2.34 -36.21,-19.77 -36.23,-40.52zm45.33,40.52c0.48,-1.63 1,-3.3 1.54,-4.9c2.96,-8.91 6.86,-17.48 11.61,-25.58c4.8,-8.02 10.34,-15.56 16.56,-22.54c1.1,-1.18 2.19,-2.29 3.29,-3.39c5.02,11.85 4.15,25.37 -2.35,36.48c-6.5,11.11 -17.86,18.5 -30.65,19.93z" fill="#000000" id="svg_2"/>
   <path d="m330,18.11c-4.83,2.21 -9.8,4.09 -14.88,5.63c-8.75,-13.69 -23.87,-21.97 -40.12,-21.97c-16.24,0 -31.37,8.28 -40.12,21.97c-5.06,-1.59 -10.03,-3.47 -14.88,-5.63c4.29,3.14 8.39,6.52 12.29,10.14c-7.01,14.34 -6.39,31.23 1.65,45.02c8.03,13.78 22.42,22.65 38.35,23.62c1.24,5.39 2.15,10.84 2.71,16.34c0.56,-5.5 1.47,-10.95 2.71,-16.34c15.92,-0.94 30.31,-9.78 38.35,-23.55c8.04,-13.77 8.66,-30.65 1.65,-44.97c3.89,-3.66 8,-7.08 12.29,-10.26zm-55,19.27c9.8,0.15 22.62,-2.49 28.45,-3.83c-4.21,4.82 -13.53,15.79 -17.24,22.61c-3.79,7 -9.09,21 -11.23,26.86c-2.21,-6 -7.75,-20.78 -11.17,-27.23c-3.42,-6.45 -13,-17.47 -17.31,-22.3c5.85,1.24 18.84,3.75 28.5,3.89zm0,-28.83c13.21,0 25.59,6.41 33.23,17.18c-1.54,0.42 -3.09,0.83 -4.72,1.17c-9.37,2.04 -18.93,3.05 -28.51,3c-9.59,0.05 -19.16,-1 -28.51,-3.15c-1.61,-0.34 -3.15,-0.69 -4.68,-1.08c7.64,-10.74 20.01,-17.12 33.19,-17.12zm-40.78,40.77c0,-5.48 1.12,-10.9 3.28,-15.94l3.24,3.33c6.22,6.98 11.77,14.52 16.57,22.54c4.73,8.15 8.61,16.76 11.6,25.69c0.59,1.6 1.06,3.27 1.54,4.9c-20.62,-2.34 -36.21,-19.77 -36.23,-40.52zm45.33,40.52c0.48,-1.63 1,-3.3 1.54,-4.9c2.96,-8.91 6.86,-17.48 11.61,-25.58c4.8,-8.02 10.34,-15.56 16.56,-22.54c1.1,-1.18 2.19,-2.29 3.29,-3.39c5.02,11.85 4.15,25.37 -2.35,36.48c-6.5,11.11 -17.86,18.5 -30.65,19.93z" fill="#000000" id="svg_3"/>
  </g>
 </g>
</svg>