<?xml version="1.0" encoding="UTF-8"?>
<!DOCTYPE svg PUBLIC "-//W3C//DTD SVG 1.1//EN" "http://www.w3.org/Graphics/SVG/1.1/DTD/svg11.dtd">
<svg version="1.1" xmlns="http://www.w3.org/2000/svg" xmlns:xlink="http://www.w3.org/1999/xlink" x="0" y="0" width="110" height="115" viewBox="0, 0, 110, 115">
  <g id="Layer_1">
    <path d="M110,18.11 C105.172,20.318 100.201,22.199 95.12,23.74 C86.369,10.054 71.245,1.772 55,1.772 C38.755,1.772 23.631,10.054 14.88,23.74 C9.816,22.151 4.848,20.271 -0,18.11 C4.29,21.248 8.394,24.634 12.29,28.25 C5.284,42.588 5.901,59.478 13.936,73.266 C21.971,87.054 36.361,95.917 52.29,96.89 C53.532,102.275 54.437,107.732 55,113.23 C55.563,107.732 56.468,102.275 57.71,96.89 C73.627,95.949 88.019,87.111 96.058,73.341 C104.097,59.571 104.717,42.693 97.71,28.37 C101.602,24.712 105.706,21.286 110,18.11 z M55,37.38 C64.8,37.53 77.62,34.89 83.45,33.55 C79.24,38.37 69.92,49.34 66.21,56.16 C62.42,63.16 57.12,77.16 54.98,83.02 C52.77,77.02 47.23,62.24 43.81,55.79 C40.39,49.34 30.81,38.32 26.5,33.49 C32.35,34.73 45.34,37.24 55,37.38 z M55,8.55 C68.207,8.552 80.593,14.956 88.23,25.73 C86.69,26.15 85.14,26.56 83.51,26.9 C74.145,28.943 64.585,29.949 55,29.9 C45.407,29.954 35.84,28.897 26.49,26.75 C24.88,26.41 23.34,26.06 21.81,25.67 C29.451,14.929 41.818,8.55 55,8.55 z M14.22,49.32 C14.22,43.839 15.336,38.416 17.5,33.38 L20.74,36.71 C26.959,43.686 32.507,51.233 37.31,59.25 C42.037,67.398 45.924,76.006 48.91,84.94 C49.5,86.54 49.97,88.21 50.45,89.84 C29.831,87.502 14.245,70.071 14.22,49.32 z M59.55,89.84 C60.03,88.21 60.55,86.54 61.09,84.94 C64.054,76.031 67.946,67.457 72.7,59.36 C77.499,51.343 83.043,43.796 89.26,36.82 C90.36,35.64 91.45,34.53 92.55,33.43 C97.571,45.28 96.701,58.805 90.202,69.914 C83.704,81.023 72.34,88.41 59.55,89.84 z" fill="#000000"/>
  </g>
</svg>
