<?xml version="1.0"?>
<svg width="220" height="115.00000000000003" xmlns="http://www.w3.org/2000/svg" xmlns:svg="http://www.w3.org/2000/svg">
 <g class="layer">
  <circle cx="55" cy="57.5" fill="#ffffff" id="svg_4" r="51"/>
  <path d="m55,110.74c29.39,0 53.21,-23.82 53.21,-53.21c0,-29.39 -23.82,-53.2 -53.21,-53.2c-29.39,0 -53.21,23.81 -53.21,53.2s23.82,53.21 53.21,53.21zm-0.13,-10.53c-23.51,0 -42.44,-19.17 -42.44,-42.68c0,-23.5 19.06,-42.56 42.57,-42.56c0.03,0.09 -0.29,85.24 -0.13,85.24z" id="svg_2"/>
  <circle cx="55" cy="57.5" fill="none" id="svg_3" r="51" stroke="#fff" stroke-width="4"/>
 </g>
 <g class="layer">
  <circle cx="165" cy="57.5" fill="#ffffff" id="svg_5" r="51"/>
  <path d="m165,110.74c29.39,0 53.21,-23.82 53.21,-53.21c0,-29.39 -23.82,-53.2 -53.21,-53.2c-29.39,0 -53.21,23.81 -53.21,53.2s23.82,53.21 53.21,53.21zm-0.13,-10.53c-23.51,0 -42.44,-19.17 -42.44,-42.68c0,-23.5 19.06,-42.56 42.57,-42.56c0.03,0.09 -0.29,85.24 -0.13,85.24z" id="svg_1"/>
  <circle cx="165" cy="57.5" fill="none" id="svg_6" r="51" stroke="#fff" stroke-width="4"/>
 </g>
</svg>