<?xml version="1.0" encoding="UTF-8"?>
<!DOCTYPE svg PUBLIC "-//W3C//DTD SVG 1.1//EN" "http://www.w3.org/Graphics/SVG/1.1/DTD/svg11.dtd">
<svg version="1.1" xmlns="http://www.w3.org/2000/svg" xmlns:xlink="http://www.w3.org/1999/xlink" x="0" y="0" width="110" height="115" viewBox="0, 0, 110, 115">
  <g id="Layer_1">
    <path d="M95.73,63.53 L94.14,62.74 L94,60.86 C94.589,59.724 95.257,58.632 96,57.59 C96.69,56.5 97.48,55.41 98.28,54.22 C100.278,51.311 101.474,47.928 101.75,44.41 C102.234,40.47 101.828,36.472 100.56,32.71 C99.754,30.04 98.44,27.551 96.69,25.38 C94.993,23.313 93.029,21.48 90.85,19.93 C88.645,18.383 86.302,17.044 83.85,15.93 C81.37,14.84 78.9,13.85 76.42,12.93 L75.52,12.93 C77.964,14.326 80.12,16.176 81.87,18.38 C83.255,20.107 84.276,22.097 84.87,24.23 C85.363,26.17 85.465,28.19 85.17,30.17 C84.917,32.08 84.416,33.949 83.68,35.73 C81.68,40.492 78.726,44.793 75,48.37 C77.87,53.23 79.56,57.69 80,61.85 C80.424,65.72 80.022,69.637 78.82,73.34 C77.657,76.785 75.912,80.005 73.66,82.86 C71.552,85.478 69.209,87.898 66.66,90.09 C64.522,91.943 62.234,93.615 59.82,95.09 C57.74,96.27 56.35,97.09 55.56,97.46 L54.41,97.46 C53.61,97.07 52.23,96.27 50.15,95.09 C47.783,93.592 45.53,91.921 43.41,90.09 C40.859,87.901 38.516,85.481 36.41,82.86 C34.157,80.007 32.415,76.787 31.26,73.34 C29.961,69.623 29.52,65.661 29.97,61.75 C30.36,57.59 32.05,53.13 34.97,48.37 C31.309,44.796 28.41,40.516 26.45,35.79 C25.714,34.009 25.213,32.14 24.96,30.23 C24.67,28.249 24.772,26.231 25.26,24.29 C25.858,22.159 26.879,20.17 28.26,18.44 C29.976,16.251 32.09,14.405 34.49,13 L33.7,13 C31.22,13.9 28.64,14.89 26.16,16 C23.707,17.112 21.363,18.451 19.16,20 C16.978,21.55 15.011,23.383 13.31,25.45 C11.563,27.622 10.252,30.111 9.45,32.78 C8.177,36.575 7.77,40.607 8.26,44.58 C8.513,48.086 9.747,51.451 11.82,54.29 C12.62,55.48 13.41,56.57 14.1,57.66 C14.79,58.75 15.39,59.84 15.98,60.93 L15.89,62.81 L14.3,63.6 L12.68,63 C11.537,62.512 10.445,61.913 9.42,61.21 C7.822,60.164 6.34,58.951 5,57.59 C3.163,55.627 1.553,53.463 0.2,51.14 L0,52.83 L0,56.3 C0.364,59.102 1.239,61.813 2.58,64.3 C3.798,66.497 5.283,68.536 7,70.37 C8.518,72.072 10.249,73.571 12.15,74.83 C13.93,76.02 15.62,77.01 17.15,77.83 C18.379,78.423 19.637,78.954 20.92,79.42 L22.5,80 L23.39,80.7 L23.68,82 L22.6,82.9 L20,83.75 C18.823,83.967 17.624,84.034 16.43,83.95 C15.06,83.922 13.706,83.651 12.43,83.15 C13.12,83.85 14.11,84.74 15.3,85.83 C16.49,86.92 17.88,88.11 19.46,89.3 C21.04,90.49 23.03,91.77 25.11,93.06 C27.234,94.41 29.453,95.603 31.75,96.63 C34.233,97.714 36.781,98.643 39.38,99.41 C41.96,100.2 44.44,100.79 46.62,101.29 C48.448,101.671 50.304,101.902 52.17,101.98 C53.65,102.08 54.44,101.88 54.64,101.59 L54.74,101.39 L55.14,101.39 L55.14,101.59 C55.34,101.88 56.14,102.08 57.62,101.98 C59.482,101.901 61.335,101.67 63.16,101.29 C65.35,100.79 67.82,100.2 70.4,99.41 C72.999,98.644 75.548,97.716 78.03,96.63 C80.369,95.624 82.623,94.43 84.77,93.06 C86.695,91.922 88.549,90.666 90.32,89.3 C91.91,88.11 93.32,86.92 94.48,85.83 C95.64,84.74 96.66,83.83 97.35,83.15 C96.074,83.651 94.72,83.922 93.35,83.95 C92.19,84.034 91.023,83.967 89.88,83.75 L87.3,82.86 L86.32,82 L86.51,80.72 L87.51,80.02 L89.09,79.43 C90.373,78.964 91.631,78.433 92.86,77.84 C94.34,77.05 96.03,76.06 97.86,74.84 C99.758,73.577 101.486,72.074 103,70.37 C104.755,68.532 106.255,66.467 107.46,64.23 C108.804,61.772 109.666,59.081 110,56.3 L110,52.83 L109.8,51.14 C108.447,53.463 106.837,55.627 105,57.59 C103.649,58.967 102.154,60.194 100.54,61.25 C99.482,61.921 98.371,62.506 97.22,63 z M59.16,41.53 C60.449,40.949 61.624,40.143 62.63,39.15 C63.643,38.146 64.422,36.93 64.91,35.59 C66.097,32.874 66.097,29.786 64.91,27.07 C64.4,25.738 63.624,24.523 62.63,23.5 C61.626,22.504 60.451,21.698 59.16,21.12 C56.487,20.067 53.513,20.067 50.84,21.12 C49.549,21.698 48.374,22.504 47.37,23.5 C46.376,24.523 45.6,25.738 45.09,27.07 C43.903,29.786 43.903,32.874 45.09,35.59 C45.578,36.93 46.357,38.146 47.37,39.15 C48.376,40.143 49.551,40.949 50.84,41.53 C52.15,42.101 53.571,42.374 55,42.33 C56.429,42.375 57.85,42.102 59.16,41.53 z" fill="#000000"/>
  </g>
</svg>
