<?xml version="1.0" encoding="UTF-8"?>
<!DOCTYPE svg PUBLIC "-//W3C//DTD SVG 1.1//EN" "http://www.w3.org/Graphics/SVG/1.1/DTD/svg11.dtd">
<svg version="1.1" xmlns="http://www.w3.org/2000/svg" xmlns:xlink="http://www.w3.org/1999/xlink" x="0" y="0" width="110" height="115" viewBox="0, 0, 110, 115">
  <g id="Layer_1">
    <path d="M96.77,77.63 L104.34,77.01 L97.34,76.01 C98.776,71.585 99.505,66.962 99.5,62.31 C99.37,38.668 80.929,19.177 57.33,17.74 L56.74,0 L52.18,0 L51.58,17.73 C28.343,19.144 10.092,38.174 9.65,61.45 C9.208,84.725 26.724,104.435 49.89,106.73 L49.89,115 L59,112.41 L59,106.76 C65.398,106.113 71.583,104.105 77.14,100.87 L82.94,105.87 L78.68,99.87 C86.97,94.623 93.321,86.815 96.77,77.63 z M71.69,27.5 C76.006,29.532 79.882,32.389 83.1,35.91 C86.344,39.387 88.914,43.435 90.68,47.85 C92.563,52.423 93.515,57.325 93.48,62.27 C93.514,66.618 92.741,70.934 91.2,75 L64.53,70.68 L79.47,49.51 L59.13,64.45 L57.57,23.66 C62.48,24.021 67.274,25.325 71.69,27.5 z M64.11,80.33 L90.11,78.26 C88.549,81.752 86.447,84.975 83.88,87.81 C81.382,90.699 78.483,93.215 75.27,95.28 z M72.11,96.94 C70.094,98.018 67.973,98.886 65.78,99.53 C63.571,100.233 61.301,100.725 59,101 L59,86.87 z M44.6,76.49 L34.32,91.23 L49.32,83.55 L49.84,85.83 L49.84,101 C45.175,100.38 40.658,98.934 36.5,96.73 C32.385,94.618 28.691,91.771 25.6,88.33 C22.5,84.806 20.042,80.764 18.34,76.39 C14.719,67.266 14.755,57.098 18.44,48 C20.233,43.558 22.838,39.489 26.12,36 C29.311,32.511 33.11,29.631 37.33,27.5 C41.709,25.34 46.461,24.037 51.33,23.66 L49.68,68.19 L20.93,60.51 z" fill="#000000"/>
  </g>
</svg>
