<?xml version="1.0" encoding="UTF-8"?>
<!DOCTYPE svg PUBLIC "-//W3C//DTD SVG 1.1//EN" "http://www.w3.org/Graphics/SVG/1.1/DTD/svg11.dtd">
<svg version="1.1" xmlns="http://www.w3.org/2000/svg" xmlns:xlink="http://www.w3.org/1999/xlink" x="0" y="0" width="110" height="115" viewBox="0, 0, 110, 115">
  <g id="Layer_1">
    <path d="M83.52,18.67 C74.152,20.712 64.588,21.718 55,21.67 C45.415,21.718 35.855,20.712 26.49,18.67 C17.393,16.669 8.519,13.764 -0,10 C7.56,15.435 14.513,21.668 20.74,28.59 C26.954,35.523 32.502,43.027 37.31,51 C42.058,59.179 45.946,67.829 48.91,76.81 C51.968,85.955 54.01,95.408 55,105 C55.992,95.415 58.034,85.968 61.09,76.83 C64.034,67.876 67.922,59.261 72.69,51.13 C77.469,43.131 83.019,35.619 89.26,28.7 C95.514,21.772 102.464,15.506 110,10 C101.49,13.781 92.618,16.686 83.52,18.67 z" fill="#000000"/>
  </g>
</svg>
