<?xml version="1.0"?>
<svg width="550" height="115" xmlns="http://www.w3.org/2000/svg" xmlns:svg="http://www.w3.org/2000/svg" version="1.1">
 <g class="layer">
  <title>Layer 1</title>
  <g id="Layer_1">
   <path d="m95.73,63.53l-1.59,-0.79l-0.14,-1.88c0.59,-1.14 1.26,-2.23 2,-3.27c0.69,-1.09 1.48,-2.18 2.28,-3.37c2,-2.91 3.19,-6.29 3.47,-9.81c0.48,-3.94 0.08,-7.94 -1.19,-11.7c-0.81,-2.67 -2.12,-5.16 -3.87,-7.33c-1.7,-2.07 -3.66,-3.9 -5.84,-5.45c-2.21,-1.55 -4.55,-2.89 -7,-4c-2.48,-1.09 -4.95,-2.08 -7.43,-3l-0.9,0c2.44,1.4 4.6,3.25 6.35,5.45c1.38,1.73 2.41,3.72 3,5.85c0.49,1.94 0.6,3.96 0.3,5.94c-0.25,1.91 -0.75,3.78 -1.49,5.56c-2,4.76 -4.95,9.06 -8.68,12.64c2.87,4.86 4.56,9.32 5,13.48c0.42,3.87 0.02,7.79 -1.18,11.49c-1.16,3.44 -2.91,6.66 -5.16,9.52c-2.11,2.62 -4.45,5.04 -7,7.23c-2.14,1.85 -4.43,3.52 -6.84,5c-2.08,1.18 -3.47,2 -4.26,2.37l-1.15,0c-0.8,-0.39 -2.18,-1.19 -4.26,-2.37c-2.37,-1.5 -4.62,-3.17 -6.74,-5c-2.55,-2.19 -4.89,-4.61 -7,-7.23c-2.25,-2.85 -4,-6.07 -5.15,-9.52c-1.3,-3.72 -1.74,-7.68 -1.29,-11.59c0.39,-4.16 2.08,-8.62 5,-13.38c-3.66,-3.57 -6.56,-7.85 -8.52,-12.58c-0.74,-1.78 -1.24,-3.65 -1.49,-5.56c-0.29,-1.98 -0.19,-4 0.3,-5.94c0.6,-2.13 1.62,-4.12 3,-5.85c1.72,-2.19 3.83,-4.04 6.23,-5.44l-0.79,0c-2.48,0.9 -5.06,1.89 -7.54,3c-2.45,1.11 -4.8,2.45 -7,4c-2.18,1.55 -4.15,3.38 -5.85,5.45c-1.75,2.17 -3.06,4.66 -3.86,7.33c-1.27,3.8 -1.68,7.83 -1.19,11.8c0.25,3.51 1.49,6.87 3.56,9.71c0.8,1.19 1.59,2.28 2.28,3.37c0.69,1.09 1.29,2.18 1.88,3.27l-0.09,1.88l-1.59,0.79l-1.62,-0.6c-1.14,-0.49 -2.23,-1.09 -3.26,-1.79c-1.6,-1.05 -3.08,-2.26 -4.42,-3.62c-1.84,-1.96 -3.45,-4.13 -4.8,-6.45l-0.2,1.69l0,3.47c0.36,2.8 1.24,5.51 2.58,8c1.22,2.2 2.7,4.24 4.42,6.07c1.52,1.7 3.25,3.2 5.15,4.46c1.78,1.19 3.47,2.18 5,3c1.23,0.59 2.49,1.12 3.77,1.59l1.58,0.58l0.89,0.7l0.29,1.3l-1.08,0.9l-2.6,0.85c-1.18,0.22 -2.38,0.28 -3.57,0.2c-1.37,-0.03 -2.72,-0.3 -4,-0.8c0.69,0.7 1.68,1.59 2.87,2.68c1.19,1.09 2.58,2.28 4.16,3.47c1.58,1.19 3.57,2.47 5.65,3.76c2.12,1.35 4.34,2.54 6.64,3.57c2.48,1.08 5.03,2.01 7.63,2.78c2.58,0.79 5.06,1.38 7.24,1.88c1.83,0.38 3.68,0.61 5.55,0.69c1.48,0.1 2.27,-0.1 2.47,-0.39l0.1,-0.2l0.4,0l0,0.2c0.2,0.29 1,0.49 2.48,0.39c1.86,-0.08 3.72,-0.31 5.54,-0.69c2.19,-0.5 4.66,-1.09 7.24,-1.88c2.6,-0.77 5.15,-1.69 7.63,-2.78c2.34,-1.01 4.59,-2.2 6.74,-3.57c1.92,-1.14 3.78,-2.39 5.55,-3.76c1.59,-1.19 3,-2.38 4.16,-3.47c1.16,-1.09 2.18,-2 2.87,-2.68c-1.28,0.5 -2.63,0.77 -4,0.8c-1.16,0.08 -2.33,0.02 -3.47,-0.2l-2.58,-0.89l-0.98,-0.86l0.19,-1.28l1,-0.7l1.58,-0.59c1.28,-0.47 2.54,-1 3.77,-1.59c1.48,-0.79 3.17,-1.78 5,-3c1.9,-1.26 3.63,-2.77 5.14,-4.47c1.75,-1.84 3.25,-3.9 4.46,-6.14c1.34,-2.46 2.21,-5.15 2.54,-7.93l0,-3.47l-0.2,-1.69c-1.35,2.32 -2.96,4.49 -4.8,6.45c-1.35,1.38 -2.85,2.6 -4.46,3.66c-1.06,0.67 -2.17,1.26 -3.32,1.75l-1.49,0.53zm-36.57,-22c1.29,-0.58 2.46,-1.39 3.47,-2.38c1.01,-1 1.79,-2.22 2.28,-3.56c1.19,-2.72 1.19,-5.8 0,-8.52c-0.51,-1.33 -1.29,-2.55 -2.28,-3.57c-1,-1 -2.18,-1.8 -3.47,-2.38c-2.67,-1.05 -5.65,-1.05 -8.32,0c-1.29,0.58 -2.47,1.38 -3.47,2.38c-0.99,1.02 -1.77,2.24 -2.28,3.57c-1.19,2.72 -1.19,5.8 0,8.52c0.49,1.34 1.27,2.56 2.28,3.56c1.01,0.99 2.18,1.8 3.47,2.38c1.31,0.57 2.73,0.84 4.16,0.8c1.43,0.05 2.85,-0.23 4.16,-0.8z" fill="#000000" id="svg_1"/>
   <path d="m205.73,63.53l-1.59,-0.79l-0.14,-1.88c0.59,-1.14 1.26,-2.23 2,-3.27c0.69,-1.09 1.48,-2.18 2.28,-3.37c2,-2.91 3.19,-6.29 3.47,-9.81c0.48,-3.94 0.08,-7.94 -1.19,-11.7c-0.81,-2.67 -2.12,-5.16 -3.87,-7.33c-1.7,-2.07 -3.66,-3.9 -5.84,-5.45c-2.21,-1.55 -4.55,-2.89 -7,-4c-2.48,-1.09 -4.95,-2.08 -7.43,-3l-0.9,0c2.44,1.4 4.6,3.25 6.35,5.45c1.38,1.73 2.41,3.72 3,5.85c0.49,1.94 0.6,3.96 0.3,5.94c-0.25,1.91 -0.75,3.78 -1.49,5.56c-2,4.76 -4.95,9.06 -8.68,12.64c2.87,4.86 4.56,9.32 5,13.48c0.42,3.87 0.02,7.79 -1.18,11.49c-1.16,3.44 -2.91,6.66 -5.16,9.52c-2.11,2.62 -4.45,5.04 -7,7.23c-2.14,1.85 -4.43,3.52 -6.84,5c-2.08,1.18 -3.47,2 -4.26,2.37l-1.15,0c-0.8,-0.39 -2.18,-1.19 -4.26,-2.37c-2.37,-1.5 -4.62,-3.17 -6.74,-5c-2.55,-2.19 -4.89,-4.61 -7,-7.23c-2.25,-2.85 -4,-6.07 -5.15,-9.52c-1.3,-3.72 -1.74,-7.68 -1.29,-11.59c0.39,-4.16 2.08,-8.62 5,-13.38c-3.66,-3.57 -6.56,-7.85 -8.52,-12.58c-0.74,-1.78 -1.24,-3.65 -1.49,-5.56c-0.29,-1.98 -0.19,-4 0.3,-5.94c0.6,-2.13 1.62,-4.12 3,-5.85c1.72,-2.19 3.83,-4.04 6.23,-5.44l-0.79,0c-2.48,0.9 -5.06,1.89 -7.54,3c-2.45,1.11 -4.8,2.45 -7,4c-2.18,1.55 -4.15,3.38 -5.85,5.45c-1.75,2.17 -3.06,4.66 -3.86,7.33c-1.27,3.8 -1.68,7.83 -1.19,11.8c0.25,3.51 1.49,6.87 3.56,9.71c0.8,1.19 1.59,2.28 2.28,3.37c0.69,1.09 1.29,2.18 1.88,3.27l-0.09,1.88l-1.59,0.79l-1.62,-0.6c-1.14,-0.49 -2.23,-1.09 -3.26,-1.79c-1.6,-1.05 -3.08,-2.26 -4.42,-3.62c-1.84,-1.96 -3.45,-4.13 -4.8,-6.45l-0.2,1.69l0,3.47c0.36,2.8 1.24,5.51 2.58,8c1.22,2.2 2.7,4.24 4.42,6.07c1.52,1.7 3.25,3.2 5.15,4.46c1.78,1.19 3.47,2.18 5,3c1.23,0.59 2.49,1.12 3.77,1.59l1.58,0.58l0.89,0.7l0.29,1.3l-1.08,0.9l-2.6,0.85c-1.18,0.22 -2.38,0.28 -3.57,0.2c-1.37,-0.03 -2.72,-0.3 -4,-0.8c0.69,0.7 1.68,1.59 2.87,2.68c1.19,1.09 2.58,2.28 4.16,3.47c1.58,1.19 3.57,2.47 5.65,3.76c2.12,1.35 4.34,2.54 6.64,3.57c2.48,1.08 5.03,2.01 7.63,2.78c2.58,0.79 5.06,1.38 7.24,1.88c1.83,0.38 3.68,0.61 5.55,0.69c1.48,0.1 2.27,-0.1 2.47,-0.39l0.1,-0.2l0.4,0l0,0.2c0.2,0.29 1,0.49 2.48,0.39c1.86,-0.08 3.72,-0.31 5.54,-0.69c2.19,-0.5 4.66,-1.09 7.24,-1.88c2.6,-0.77 5.15,-1.69 7.63,-2.78c2.34,-1.01 4.59,-2.2 6.74,-3.57c1.92,-1.14 3.78,-2.39 5.55,-3.76c1.59,-1.19 3,-2.38 4.16,-3.47c1.16,-1.09 2.18,-2 2.87,-2.68c-1.28,0.5 -2.63,0.77 -4,0.8c-1.16,0.08 -2.33,0.02 -3.47,-0.2l-2.58,-0.89l-0.98,-0.86l0.19,-1.28l1,-0.7l1.58,-0.59c1.28,-0.47 2.54,-1 3.77,-1.59c1.48,-0.79 3.17,-1.78 5,-3c1.9,-1.26 3.63,-2.77 5.14,-4.47c1.75,-1.84 3.25,-3.9 4.46,-6.14c1.34,-2.46 2.21,-5.15 2.54,-7.93l0,-3.47l-0.2,-1.69c-1.35,2.32 -2.96,4.49 -4.8,6.45c-1.35,1.38 -2.85,2.6 -4.46,3.66c-1.06,0.67 -2.17,1.26 -3.32,1.75l-1.49,0.53zm-36.57,-22c1.29,-0.58 2.46,-1.39 3.47,-2.38c1.01,-1 1.79,-2.22 2.28,-3.56c1.19,-2.72 1.19,-5.8 0,-8.52c-0.51,-1.33 -1.29,-2.55 -2.28,-3.57c-1,-1 -2.18,-1.8 -3.47,-2.38c-2.67,-1.05 -5.65,-1.05 -8.32,0c-1.29,0.58 -2.47,1.38 -3.47,2.38c-0.99,1.02 -1.77,2.24 -2.28,3.57c-1.19,2.72 -1.19,5.8 0,8.52c0.49,1.34 1.27,2.56 2.28,3.56c1.01,0.99 2.18,1.8 3.47,2.38c1.31,0.57 2.73,0.84 4.16,0.8c1.43,0.05 2.85,-0.23 4.16,-0.8z" fill="#000000" id="svg_2"/>
   <path d="m315.73,63.53l-1.59,-0.79l-0.14,-1.88c0.59,-1.14 1.26,-2.23 2,-3.27c0.69,-1.09 1.48,-2.18 2.28,-3.37c2,-2.91 3.19,-6.29 3.47,-9.81c0.48,-3.94 0.08,-7.94 -1.19,-11.7c-0.81,-2.67 -2.12,-5.16 -3.87,-7.33c-1.7,-2.07 -3.66,-3.9 -5.84,-5.45c-2.21,-1.55 -4.55,-2.89 -7,-4c-2.48,-1.09 -4.95,-2.08 -7.43,-3l-0.9,0c2.44,1.4 4.6,3.25 6.35,5.45c1.38,1.73 2.41,3.72 3,5.85c0.49,1.94 0.6,3.96 0.3,5.94c-0.25,1.91 -0.75,3.78 -1.49,5.56c-2,4.76 -4.95,9.06 -8.68,12.64c2.87,4.86 4.56,9.32 5,13.48c0.42,3.87 0.02,7.79 -1.18,11.49c-1.16,3.44 -2.91,6.66 -5.16,9.52c-2.11,2.62 -4.45,5.04 -7,7.23c-2.14,1.85 -4.43,3.52 -6.84,5c-2.08,1.18 -3.47,2 -4.26,2.37l-1.15,0c-0.8,-0.39 -2.18,-1.19 -4.26,-2.37c-2.37,-1.5 -4.62,-3.17 -6.74,-5c-2.55,-2.19 -4.89,-4.61 -7,-7.23c-2.25,-2.85 -4,-6.07 -5.15,-9.52c-1.3,-3.72 -1.74,-7.68 -1.29,-11.59c0.39,-4.16 2.08,-8.62 5,-13.38c-3.66,-3.57 -6.56,-7.85 -8.52,-12.58c-0.74,-1.78 -1.24,-3.65 -1.49,-5.56c-0.29,-1.98 -0.19,-4 0.3,-5.94c0.6,-2.13 1.62,-4.12 3,-5.85c1.72,-2.19 3.83,-4.04 6.23,-5.44l-0.79,0c-2.48,0.9 -5.06,1.89 -7.54,3c-2.45,1.11 -4.8,2.45 -7,4c-2.18,1.55 -4.15,3.38 -5.85,5.45c-1.75,2.17 -3.06,4.66 -3.86,7.33c-1.27,3.8 -1.68,7.83 -1.19,11.8c0.25,3.51 1.49,6.87 3.56,9.71c0.8,1.19 1.59,2.28 2.28,3.37c0.69,1.09 1.29,2.18 1.88,3.27l-0.09,1.88l-1.59,0.79l-1.62,-0.6c-1.14,-0.49 -2.23,-1.09 -3.26,-1.79c-1.6,-1.05 -3.08,-2.26 -4.42,-3.62c-1.84,-1.96 -3.45,-4.13 -4.8,-6.45l-0.2,1.69l0,3.47c0.36,2.8 1.24,5.51 2.58,8c1.22,2.2 2.7,4.24 4.42,6.07c1.52,1.7 3.25,3.2 5.15,4.46c1.78,1.19 3.47,2.18 5,3c1.23,0.59 2.49,1.12 3.77,1.59l1.58,0.58l0.89,0.7l0.29,1.3l-1.08,0.9l-2.6,0.85c-1.18,0.22 -2.38,0.28 -3.57,0.2c-1.37,-0.03 -2.72,-0.3 -4,-0.8c0.69,0.7 1.68,1.59 2.87,2.68c1.19,1.09 2.58,2.28 4.16,3.47c1.58,1.19 3.57,2.47 5.65,3.76c2.12,1.35 4.34,2.54 6.64,3.57c2.48,1.08 5.03,2.01 7.63,2.78c2.58,0.79 5.06,1.38 7.24,1.88c1.83,0.38 3.68,0.61 5.55,0.69c1.48,0.1 2.27,-0.1 2.47,-0.39l0.1,-0.2l0.4,0l0,0.2c0.2,0.29 1,0.49 2.48,0.39c1.86,-0.08 3.72,-0.31 5.54,-0.69c2.19,-0.5 4.66,-1.09 7.24,-1.88c2.6,-0.77 5.15,-1.69 7.63,-2.78c2.34,-1.01 4.59,-2.2 6.74,-3.57c1.92,-1.14 3.78,-2.39 5.55,-3.76c1.59,-1.19 3,-2.38 4.16,-3.47c1.16,-1.09 2.18,-2 2.87,-2.68c-1.28,0.5 -2.63,0.77 -4,0.8c-1.16,0.08 -2.33,0.02 -3.47,-0.2l-2.58,-0.89l-0.98,-0.86l0.19,-1.28l1,-0.7l1.58,-0.59c1.28,-0.47 2.54,-1 3.77,-1.59c1.48,-0.79 3.17,-1.78 5,-3c1.9,-1.26 3.63,-2.77 5.14,-4.47c1.75,-1.84 3.25,-3.9 4.46,-6.14c1.34,-2.46 2.21,-5.15 2.54,-7.93l0,-3.47l-0.2,-1.69c-1.35,2.32 -2.96,4.49 -4.8,6.45c-1.35,1.38 -2.85,2.6 -4.46,3.66c-1.06,0.67 -2.17,1.26 -3.32,1.75l-1.49,0.53zm-36.57,-22c1.29,-0.58 2.46,-1.39 3.47,-2.38c1.01,-1 1.79,-2.22 2.28,-3.56c1.19,-2.72 1.19,-5.8 0,-8.52c-0.51,-1.33 -1.29,-2.55 -2.28,-3.57c-1,-1 -2.18,-1.8 -3.47,-2.38c-2.67,-1.05 -5.65,-1.05 -8.32,0c-1.29,0.58 -2.47,1.38 -3.47,2.38c-0.99,1.02 -1.77,2.24 -2.28,3.57c-1.19,2.72 -1.19,5.8 0,8.52c0.49,1.34 1.27,2.56 2.28,3.56c1.01,0.99 2.18,1.8 3.47,2.38c1.31,0.57 2.73,0.84 4.16,0.8c1.43,0.05 2.85,-0.23 4.16,-0.8z" fill="#000000" id="svg_3"/>
   <path d="m425.73,63.53l-1.59,-0.79l-0.14,-1.88c0.59,-1.14 1.26,-2.23 2,-3.27c0.69,-1.09 1.48,-2.18 2.28,-3.37c2,-2.91 3.19,-6.29 3.47,-9.81c0.48,-3.94 0.08,-7.94 -1.19,-11.7c-0.81,-2.67 -2.12,-5.16 -3.87,-7.33c-1.7,-2.07 -3.66,-3.9 -5.84,-5.45c-2.21,-1.55 -4.55,-2.89 -7,-4c-2.48,-1.09 -4.95,-2.08 -7.43,-3l-0.9,0c2.44,1.4 4.6,3.25 6.35,5.45c1.38,1.73 2.41,3.72 3,5.85c0.49,1.94 0.6,3.96 0.3,5.94c-0.25,1.91 -0.75,3.78 -1.49,5.56c-2,4.76 -4.95,9.06 -8.68,12.64c2.87,4.86 4.56,9.32 5,13.48c0.42,3.87 0.02,7.79 -1.18,11.49c-1.16,3.44 -2.91,6.66 -5.16,9.52c-2.11,2.62 -4.45,5.04 -7,7.23c-2.14,1.85 -4.43,3.52 -6.84,5c-2.08,1.18 -3.47,2 -4.26,2.37l-1.15,0c-0.8,-0.39 -2.18,-1.19 -4.26,-2.37c-2.37,-1.5 -4.62,-3.17 -6.74,-5c-2.55,-2.19 -4.89,-4.61 -7,-7.23c-2.25,-2.85 -4,-6.07 -5.15,-9.52c-1.3,-3.72 -1.74,-7.68 -1.29,-11.59c0.39,-4.16 2.08,-8.62 5,-13.38c-3.66,-3.57 -6.56,-7.85 -8.52,-12.58c-0.74,-1.78 -1.24,-3.65 -1.49,-5.56c-0.29,-1.98 -0.19,-4 0.3,-5.94c0.6,-2.13 1.62,-4.12 3,-5.85c1.72,-2.19 3.83,-4.04 6.23,-5.44l-0.79,0c-2.48,0.9 -5.06,1.89 -7.54,3c-2.45,1.11 -4.8,2.45 -7,4c-2.18,1.55 -4.15,3.38 -5.85,5.45c-1.75,2.17 -3.06,4.66 -3.86,7.33c-1.27,3.8 -1.68,7.83 -1.19,11.8c0.25,3.51 1.49,6.87 3.56,9.71c0.8,1.19 1.59,2.28 2.28,3.37c0.69,1.09 1.29,2.18 1.88,3.27l-0.09,1.88l-1.59,0.79l-1.62,-0.6c-1.14,-0.49 -2.23,-1.09 -3.26,-1.79c-1.6,-1.05 -3.08,-2.26 -4.42,-3.62c-1.84,-1.96 -3.45,-4.13 -4.8,-6.45l-0.2,1.69l0,3.47c0.36,2.8 1.24,5.51 2.58,8c1.22,2.2 2.7,4.24 4.42,6.07c1.52,1.7 3.25,3.2 5.15,4.46c1.78,1.19 3.47,2.18 5,3c1.23,0.59 2.49,1.12 3.77,1.59l1.58,0.58l0.89,0.7l0.29,1.3l-1.08,0.9l-2.6,0.85c-1.18,0.22 -2.38,0.28 -3.57,0.2c-1.37,-0.03 -2.72,-0.3 -4,-0.8c0.69,0.7 1.68,1.59 2.87,2.68c1.19,1.09 2.58,2.28 4.16,3.47c1.58,1.19 3.57,2.47 5.65,3.76c2.12,1.35 4.34,2.54 6.64,3.57c2.48,1.08 5.03,2.01 7.63,2.78c2.58,0.79 5.06,1.38 7.24,1.88c1.83,0.38 3.68,0.61 5.55,0.69c1.48,0.1 2.27,-0.1 2.47,-0.39l0.1,-0.2l0.4,0l0,0.2c0.2,0.29 1,0.49 2.48,0.39c1.86,-0.08 3.72,-0.31 5.54,-0.69c2.19,-0.5 4.66,-1.09 7.24,-1.88c2.6,-0.77 5.15,-1.69 7.63,-2.78c2.34,-1.01 4.59,-2.2 6.74,-3.57c1.92,-1.14 3.78,-2.39 5.55,-3.76c1.59,-1.19 3,-2.38 4.16,-3.47c1.16,-1.09 2.18,-2 2.87,-2.68c-1.28,0.5 -2.63,0.77 -4,0.8c-1.16,0.08 -2.33,0.02 -3.47,-0.2l-2.58,-0.89l-0.98,-0.86l0.19,-1.28l1,-0.7l1.58,-0.59c1.28,-0.47 2.54,-1 3.77,-1.59c1.48,-0.79 3.17,-1.78 5,-3c1.9,-1.26 3.63,-2.77 5.14,-4.47c1.75,-1.84 3.25,-3.9 4.46,-6.14c1.34,-2.46 2.21,-5.15 2.54,-7.93l0,-3.47l-0.2,-1.69c-1.35,2.32 -2.96,4.49 -4.8,6.45c-1.35,1.38 -2.85,2.6 -4.46,3.66c-1.06,0.67 -2.17,1.26 -3.32,1.75l-1.49,0.53zm-36.57,-22c1.29,-0.58 2.46,-1.39 3.47,-2.38c1.01,-1 1.79,-2.22 2.28,-3.56c1.19,-2.72 1.19,-5.8 0,-8.52c-0.51,-1.33 -1.29,-2.55 -2.28,-3.57c-1,-1 -2.18,-1.8 -3.47,-2.38c-2.67,-1.05 -5.65,-1.05 -8.32,0c-1.29,0.58 -2.47,1.38 -3.47,2.38c-0.99,1.02 -1.77,2.24 -2.28,3.57c-1.19,2.72 -1.19,5.8 0,8.52c0.49,1.34 1.27,2.56 2.28,3.56c1.01,0.99 2.18,1.8 3.47,2.38c1.31,0.57 2.73,0.84 4.16,0.8c1.43,0.05 2.85,-0.23 4.16,-0.8z" fill="#000000" id="svg_4"/>
   <path d="m535.73,63.53l-1.59,-0.79l-0.14,-1.88c0.59,-1.14 1.26,-2.23 2,-3.27c0.69,-1.09 1.48,-2.18 2.28,-3.37c2,-2.91 3.19,-6.29 3.47,-9.81c0.48,-3.94 0.08,-7.94 -1.19,-11.7c-0.81,-2.67 -2.12,-5.16 -3.87,-7.33c-1.7,-2.07 -3.66,-3.9 -5.84,-5.45c-2.21,-1.55 -4.55,-2.89 -7,-4c-2.48,-1.09 -4.95,-2.08 -7.43,-3l-0.9,0c2.44,1.4 4.6,3.25 6.35,5.45c1.38,1.73 2.41,3.72 3,5.85c0.49,1.94 0.6,3.96 0.3,5.94c-0.25,1.91 -0.75,3.78 -1.49,5.56c-2,4.76 -4.95,9.06 -8.68,12.64c2.87,4.86 4.56,9.32 5,13.48c0.42,3.87 0.02,7.79 -1.18,11.49c-1.16,3.44 -2.91,6.66 -5.16,9.52c-2.11,2.62 -4.45,5.04 -7,7.23c-2.14,1.85 -4.43,3.52 -6.84,5c-2.08,1.18 -3.47,2 -4.26,2.37l-1.15,0c-0.8,-0.39 -2.18,-1.19 -4.26,-2.37c-2.37,-1.5 -4.62,-3.17 -6.74,-5c-2.55,-2.19 -4.89,-4.61 -7,-7.23c-2.25,-2.85 -4,-6.07 -5.15,-9.52c-1.3,-3.72 -1.74,-7.68 -1.29,-11.59c0.39,-4.16 2.08,-8.62 5,-13.38c-3.66,-3.57 -6.56,-7.85 -8.52,-12.58c-0.74,-1.78 -1.24,-3.65 -1.49,-5.56c-0.29,-1.98 -0.19,-4 0.3,-5.94c0.6,-2.13 1.62,-4.12 3,-5.85c1.72,-2.19 3.83,-4.04 6.23,-5.44l-0.79,0c-2.48,0.9 -5.06,1.89 -7.54,3c-2.45,1.11 -4.8,2.45 -7,4c-2.18,1.55 -4.15,3.38 -5.85,5.45c-1.75,2.17 -3.06,4.66 -3.86,7.33c-1.27,3.8 -1.68,7.83 -1.19,11.8c0.25,3.51 1.49,6.87 3.56,9.71c0.8,1.19 1.59,2.28 2.28,3.37c0.69,1.09 1.29,2.18 1.88,3.27l-0.09,1.88l-1.59,0.79l-1.62,-0.6c-1.14,-0.49 -2.23,-1.09 -3.26,-1.79c-1.6,-1.05 -3.08,-2.26 -4.42,-3.62c-1.84,-1.96 -3.45,-4.13 -4.8,-6.45l-0.2,1.69l0,3.47c0.36,2.8 1.24,5.51 2.58,8c1.22,2.2 2.7,4.24 4.42,6.07c1.52,1.7 3.25,3.2 5.15,4.46c1.78,1.19 3.47,2.18 5,3c1.23,0.59 2.49,1.12 3.77,1.59l1.58,0.58l0.89,0.7l0.29,1.3l-1.08,0.9l-2.6,0.85c-1.18,0.22 -2.38,0.28 -3.57,0.2c-1.37,-0.03 -2.72,-0.3 -4,-0.8c0.69,0.7 1.68,1.59 2.87,2.68c1.19,1.09 2.58,2.28 4.16,3.47c1.58,1.19 3.57,2.47 5.65,3.76c2.12,1.35 4.34,2.54 6.64,3.57c2.48,1.08 5.03,2.01 7.63,2.78c2.58,0.79 5.06,1.38 7.24,1.88c1.83,0.38 3.68,0.61 5.55,0.69c1.48,0.1 2.27,-0.1 2.47,-0.39l0.1,-0.2l0.4,0l0,0.2c0.2,0.29 1,0.49 2.48,0.39c1.86,-0.08 3.72,-0.31 5.54,-0.69c2.19,-0.5 4.66,-1.09 7.24,-1.88c2.6,-0.77 5.15,-1.69 7.63,-2.78c2.34,-1.01 4.59,-2.2 6.74,-3.57c1.92,-1.14 3.78,-2.39 5.55,-3.76c1.59,-1.19 3,-2.38 4.16,-3.47c1.16,-1.09 2.18,-2 2.87,-2.68c-1.28,0.5 -2.63,0.77 -4,0.8c-1.16,0.08 -2.33,0.02 -3.47,-0.2l-2.58,-0.89l-0.98,-0.86l0.19,-1.28l1,-0.7l1.58,-0.59c1.28,-0.47 2.54,-1 3.77,-1.59c1.48,-0.79 3.17,-1.78 5,-3c1.9,-1.26 3.63,-2.77 5.14,-4.47c1.75,-1.84 3.25,-3.9 4.46,-6.14c1.34,-2.46 2.21,-5.15 2.54,-7.93l0,-3.47l-0.2,-1.69c-1.35,2.32 -2.96,4.49 -4.8,6.45c-1.35,1.38 -2.85,2.6 -4.46,3.66c-1.06,0.67 -2.17,1.26 -3.32,1.75l-1.49,0.53zm-36.57,-22c1.29,-0.58 2.46,-1.39 3.47,-2.38c1.01,-1 1.79,-2.22 2.28,-3.56c1.19,-2.72 1.19,-5.8 0,-8.52c-0.51,-1.33 -1.29,-2.55 -2.28,-3.57c-1,-1 -2.18,-1.8 -3.47,-2.38c-2.67,-1.05 -5.65,-1.05 -8.32,0c-1.29,0.58 -2.47,1.38 -3.47,2.38c-0.99,1.02 -1.77,2.24 -2.28,3.57c-1.19,2.72 -1.19,5.8 0,8.52c0.49,1.34 1.27,2.56 2.28,3.56c1.01,0.99 2.18,1.8 3.47,2.38c1.31,0.57 2.73,0.84 4.16,0.8c1.43,0.05 2.85,-0.23 4.16,-0.8z" fill="#000000" id="svg_5"/>
  </g>
 </g>
</svg>