<?xml version="1.0" encoding="UTF-8"?>
<!DOCTYPE svg PUBLIC "-//W3C//DTD SVG 1.1//EN" "http://www.w3.org/Graphics/SVG/1.1/DTD/svg11.dtd">
<svg version="1.1" xmlns="http://www.w3.org/2000/svg" xmlns:xlink="http://www.w3.org/1999/xlink" x="0" y="0" width="110" height="115" viewBox="0, 0, 110, 115">
  <g id="Layer_1">
    <path d="M57.27,0.29 L47.59,40.1 L0,17.39 L34,54.57 L3.35,70.71 L34.68,75.86 L28.34,114.71 L57.27,84.94 L85,112.44 L79.15,75.49 L110,70.59 L82.74,54.09 L102.47,26.47 L69.94,35.32 z M57.27,72.87 L41.85,88.53 L45.07,68.92 L29.07,66.41 L47,56.84 L33.48,42 L53.33,51.44 L58.59,30.3 L64.21,45.84 L81.3,41.18 L70.3,56.6 L85.6,65.81 L68.87,68.44 L71.98,87.44 z" fill="#000000"/>
  </g>
</svg>
