<?xml version="1.0"?>
<svg width="550" height="115" xmlns="http://www.w3.org/2000/svg" xmlns:svg="http://www.w3.org/2000/svg" version="1.1">
 <g class="layer">
  <title>Layer 1</title>
  <g id="Layer_1">
   <path d="m69,21.43l8.24,-14.67l-44.59,0l8.35,14.67l28,0zm-38.09,6l-8.67,-14.64l-22.24,38.56l16.68,0l14.23,-23.92zm79.09,23.92l-22.24,-38.56l-8.63,14.67l14,23.89l16.87,0zm-69,-17.86l-13.72,24l13.72,24.02l28,0l13.6,-24l-13.6,-24.02l-28,0zm22.28,38.32l-16.68,0l-8.16,-14.31l8.16,-14.43l16.68,0l8.16,14.43l-8.16,14.31zm-63.28,-8.28l22.24,38.56l8.39,-14.67l-13.95,-23.89l-16.68,0zm79.13,23.89l8.63,14.67l22.24,-38.56l-16.91,0l-13.96,23.89zm-38.13,6.04l-8.39,14.78l44.63,0l-8.24,-14.78l-28,0z" fill="#000000" id="svg_1"/>
   <path d="m179,21.43l8.24,-14.67l-44.59,0l8.35,14.67l28,0zm-38.09,6l-8.67,-14.64l-22.24,38.56l16.68,0l14.23,-23.92zm79.09,23.92l-22.24,-38.56l-8.63,14.67l14,23.89l16.87,0zm-69,-17.86l-13.72,24l13.72,24.02l28,0l13.6,-24l-13.6,-24.02l-28,0zm22.28,38.32l-16.68,0l-8.16,-14.31l8.16,-14.43l16.68,0l8.16,14.43l-8.16,14.31zm-63.28,-8.28l22.24,38.56l8.39,-14.67l-13.95,-23.89l-16.68,0zm79.13,23.89l8.63,14.67l22.24,-38.56l-16.91,0l-13.96,23.89zm-38.13,6.04l-8.39,14.78l44.63,0l-8.24,-14.78l-28,0z" fill="#000000" id="svg_2"/>
   <path d="m289,21.43l8.24,-14.67l-44.59,0l8.35,14.67l28,0zm-38.09,6l-8.67,-14.64l-22.24,38.56l16.68,0l14.23,-23.92zm79.09,23.92l-22.24,-38.56l-8.63,14.67l14,23.89l16.87,0zm-69,-17.86l-13.72,24l13.72,24.02l28,0l13.6,-24l-13.6,-24.02l-28,0zm22.28,38.32l-16.68,0l-8.16,-14.31l8.16,-14.43l16.68,0l8.16,14.43l-8.16,14.31zm-63.28,-8.28l22.24,38.56l8.39,-14.67l-13.95,-23.89l-16.68,0zm79.13,23.89l8.63,14.67l22.24,-38.56l-16.91,0l-13.96,23.89zm-38.13,6.04l-8.39,14.78l44.63,0l-8.24,-14.78l-28,0z" fill="#000000" id="svg_3"/>
   <path d="m399,21.43l8.24,-14.67l-44.59,0l8.35,14.67l28,0zm-38.09,6l-8.67,-14.64l-22.24,38.56l16.68,0l14.23,-23.92zm79.09,23.92l-22.24,-38.56l-8.63,14.67l14,23.89l16.87,0zm-69,-17.86l-13.72,24l13.72,24.02l28,0l13.6,-24l-13.6,-24.02l-28,0zm22.28,38.32l-16.68,0l-8.16,-14.31l8.16,-14.43l16.68,0l8.16,14.43l-8.16,14.31zm-63.28,-8.28l22.24,38.56l8.39,-14.67l-13.95,-23.89l-16.68,0zm79.13,23.89l8.63,14.67l22.24,-38.56l-16.91,0l-13.96,23.89zm-38.13,6.04l-8.39,14.78l44.63,0l-8.24,-14.78l-28,0z" fill="#000000" id="svg_4"/>
   <path d="m509,21.43l8.24,-14.67l-44.59,0l8.35,14.67l28,0zm-38.09,6l-8.67,-14.64l-22.24,38.56l16.68,0l14.23,-23.92zm79.09,23.92l-22.24,-38.56l-8.63,14.67l14,23.89l16.87,0zm-69,-17.86l-13.72,24l13.72,24.02l28,0l13.6,-24l-13.6,-24.02l-28,0zm22.28,38.32l-16.68,0l-8.16,-14.31l8.16,-14.43l16.68,0l8.16,14.43l-8.16,14.31zm-63.28,-8.28l22.24,38.56l8.39,-14.67l-13.95,-23.89l-16.68,0zm79.13,23.89l8.63,14.67l22.24,-38.56l-16.91,0l-13.96,23.89zm-38.13,6.04l-8.39,14.78l44.63,0l-8.24,-14.78l-28,0z" fill="#000000" id="svg_5"/>
  </g>
 </g>
</svg>