<?xml version="1.0"?>
<svg width="550" height="115" xmlns="http://www.w3.org/2000/svg" xmlns:svg="http://www.w3.org/2000/svg" version="1.1">
 <g class="layer">
  <title>Layer 1</title>
  <g id="Layer_1">
   <path d="m80,14l-50,0l-25,43.5l25,43.5l50,0l25,-43.5l-25,-43.5z" fill="#e31936" id="svg_1" stroke="#000000" stroke-width="6"/>
   <path d="m190,14l-50,0l-25,43.5l25,43.5l50,0l25,-43.5l-25,-43.5z" fill="#e31936" id="svg_2" stroke="#000000" stroke-width="6"/>
   <path d="m300,14l-50,0l-25,43.5l25,43.5l50,0l25,-43.5l-25,-43.5z" fill="#e31936" id="svg_3" stroke="#000000" stroke-width="6"/>
   <path d="m410,14l-50,0l-25,43.5l25,43.5l50,0l25,-43.5l-25,-43.5z" fill="#e31936" id="svg_4" stroke="#000000" stroke-width="6"/>
   <path d="m520,14l-50,0l-25,43.5l25,43.5l50,0l25,-43.5l-25,-43.5z" fill="#e31936" id="svg_5" stroke="#000000" stroke-width="6"/>
  </g>
 </g>
</svg>