<?xml version="1.0"?>
<svg width="330" height="115" xmlns="http://www.w3.org/2000/svg" xmlns:svg="http://www.w3.org/2000/svg" version="1.1">
 <g class="layer">
  <title>Layer 1</title>
  <g id="Layer_1">
   <path d="m83.52,18.67c-9.37,2.04 -18.93,3.05 -28.52,3c-9.59,0.05 -19.15,-0.96 -28.51,-3c-9.1,-2 -17.97,-4.91 -26.49,-8.67c7.56,5.44 14.51,11.67 20.74,18.59c6.21,6.93 11.76,14.44 16.57,22.41c4.75,8.18 8.64,16.83 11.6,25.81c3.06,9.14 5.1,18.6 6.09,28.19c0.99,-9.58 3.03,-19.03 6.09,-28.17c2.94,-8.95 6.83,-17.57 11.6,-25.7c4.78,-8 10.33,-15.51 16.57,-22.43c6.25,-6.93 13.2,-13.19 20.74,-18.7c-8.51,3.78 -17.38,6.69 -26.48,8.67z" fill="#000000" id="svg_1"/>
   <path d="m193.52,18.67c-9.37,2.04 -18.93,3.05 -28.52,3c-9.59,0.05 -19.15,-0.96 -28.51,-3c-9.1,-2 -17.97,-4.91 -26.49,-8.67c7.56,5.44 14.51,11.67 20.74,18.59c6.21,6.93 11.76,14.44 16.57,22.41c4.75,8.18 8.64,16.83 11.6,25.81c3.06,9.14 5.1,18.6 6.09,28.19c0.99,-9.58 3.03,-19.03 6.09,-28.17c2.94,-8.95 6.83,-17.57 11.6,-25.7c4.78,-8 10.33,-15.51 16.57,-22.43c6.25,-6.93 13.2,-13.19 20.74,-18.7c-8.51,3.78 -17.38,6.69 -26.48,8.67z" fill="#000000" id="svg_2"/>
   <path d="m303.52,18.67c-9.37,2.04 -18.93,3.05 -28.52,3c-9.59,0.05 -19.15,-0.96 -28.51,-3c-9.1,-2 -17.97,-4.91 -26.49,-8.67c7.56,5.44 14.51,11.67 20.74,18.59c6.21,6.93 11.76,14.44 16.57,22.41c4.75,8.18 8.64,16.83 11.6,25.81c3.06,9.14 5.1,18.6 6.09,28.19c0.99,-9.58 3.03,-19.03 6.09,-28.17c2.94,-8.95 6.83,-17.57 11.6,-25.7c4.78,-8 10.33,-15.51 16.57,-22.43c6.25,-6.93 13.2,-13.19 20.74,-18.7c-8.51,3.78 -17.38,6.69 -26.48,8.67z" fill="#000000" id="svg_3"/>
  </g>
 </g>
</svg>