<?xml version="1.0"?>
<svg width="330" height="115" xmlns="http://www.w3.org/2000/svg" xmlns:svg="http://www.w3.org/2000/svg" version="1.1">
 <g class="layer">
  <title>Layer 1</title>
  <g id="Layer_1">
   <path d="m96.77,77.63l7.57,-0.62l-7,-1c1.44,-4.43 2.16,-9.05 2.16,-13.7c-0.13,-23.64 -18.57,-43.13 -42.17,-44.57l-0.59,-17.74l-4.56,0l-0.6,17.73c-23.24,1.41 -41.49,20.44 -41.93,43.72c-0.44,23.27 17.07,42.99 40.24,45.28l0,8.27l9.11,-2.59l0,-5.65c6.4,-0.65 12.58,-2.65 18.14,-5.89l5.8,5l-4.26,-6c8.29,-5.25 14.64,-13.06 18.09,-22.24zm-25.08,-50.13c4.32,2.03 8.19,4.89 11.41,8.41c3.24,3.48 5.81,7.53 7.58,11.94c1.88,4.57 2.84,9.48 2.8,14.42c0.03,4.35 -0.74,8.66 -2.28,12.73l-26.67,-4.32l14.94,-21.17l-20.34,14.94l-1.56,-40.79c4.91,0.36 9.7,1.66 14.12,3.84zm-7.58,52.83l26,-2.07c-1.56,3.49 -3.66,6.71 -6.23,9.55c-2.5,2.89 -5.4,5.41 -8.61,7.47l-11.16,-14.95zm8,16.61c-2.02,1.08 -4.14,1.95 -6.33,2.59c-2.21,0.7 -4.48,1.19 -6.78,1.47l0,-14.13l13.11,10.07zm-27.51,-20.45l-10.28,14.74l15,-7.68l0.52,2.28l0,15.17c-4.67,-0.62 -9.18,-2.07 -13.34,-4.27c-4.12,-2.11 -7.81,-4.96 -10.9,-8.4c-3.1,-3.52 -5.56,-7.57 -7.26,-11.94c-3.62,-9.12 -3.58,-19.29 0.1,-28.39c1.79,-4.44 4.4,-8.51 7.68,-12c3.19,-3.49 6.99,-6.37 11.21,-8.5c4.38,-2.16 9.13,-3.46 14,-3.84l-1.65,44.53l-28.75,-7.68l23.67,15.98z" fill="#000000" id="svg_1"/>
   <path d="m206.77,77.63l7.57,-0.62l-7,-1c1.44,-4.43 2.16,-9.05 2.16,-13.7c-0.13,-23.64 -18.57,-43.13 -42.17,-44.57l-0.59,-17.74l-4.56,0l-0.6,17.73c-23.24,1.41 -41.49,20.44 -41.93,43.72c-0.44,23.27 17.07,42.99 40.24,45.28l0,8.27l9.11,-2.59l0,-5.65c6.4,-0.65 12.58,-2.65 18.14,-5.89l5.8,5l-4.26,-6c8.29,-5.25 14.64,-13.06 18.09,-22.24zm-25.08,-50.13c4.32,2.03 8.19,4.89 11.41,8.41c3.24,3.48 5.81,7.53 7.58,11.94c1.88,4.57 2.84,9.48 2.8,14.42c0.03,4.35 -0.74,8.66 -2.28,12.73l-26.67,-4.32l14.94,-21.17l-20.34,14.94l-1.56,-40.79c4.91,0.36 9.7,1.66 14.12,3.84zm-7.58,52.83l26,-2.07c-1.56,3.49 -3.66,6.71 -6.23,9.55c-2.5,2.89 -5.4,5.41 -8.61,7.47l-11.16,-14.95zm8,16.61c-2.02,1.08 -4.14,1.95 -6.33,2.59c-2.21,0.7 -4.48,1.19 -6.78,1.47l0,-14.13l13.11,10.07zm-27.51,-20.45l-10.28,14.74l15,-7.68l0.52,2.28l0,15.17c-4.67,-0.62 -9.18,-2.07 -13.34,-4.27c-4.12,-2.11 -7.81,-4.96 -10.9,-8.4c-3.1,-3.52 -5.56,-7.57 -7.26,-11.94c-3.62,-9.12 -3.58,-19.29 0.1,-28.39c1.79,-4.44 4.4,-8.51 7.68,-12c3.19,-3.49 6.99,-6.37 11.21,-8.5c4.38,-2.16 9.13,-3.46 14,-3.84l-1.65,44.53l-28.75,-7.68l23.67,15.98z" fill="#000000" id="svg_2"/>
   <path d="m316.77,77.63l7.57,-0.62l-7,-1c1.44,-4.43 2.16,-9.05 2.16,-13.7c-0.13,-23.64 -18.57,-43.13 -42.17,-44.57l-0.59,-17.74l-4.56,0l-0.6,17.73c-23.24,1.41 -41.49,20.44 -41.93,43.72c-0.44,23.27 17.07,42.99 40.24,45.28l0,8.27l9.11,-2.59l0,-5.65c6.4,-0.65 12.58,-2.65 18.14,-5.89l5.8,5l-4.26,-6c8.29,-5.25 14.64,-13.06 18.09,-22.24zm-25.08,-50.13c4.32,2.03 8.19,4.89 11.41,8.41c3.24,3.48 5.81,7.53 7.58,11.94c1.88,4.57 2.84,9.48 2.8,14.42c0.03,4.35 -0.74,8.66 -2.28,12.73l-26.67,-4.32l14.94,-21.17l-20.34,14.94l-1.56,-40.79c4.91,0.36 9.7,1.66 14.12,3.84zm-7.58,52.83l26,-2.07c-1.56,3.49 -3.66,6.71 -6.23,9.55c-2.5,2.89 -5.4,5.41 -8.61,7.47l-11.16,-14.95zm8,16.61c-2.02,1.08 -4.14,1.95 -6.33,2.59c-2.21,0.7 -4.48,1.19 -6.78,1.47l0,-14.13l13.11,10.07zm-27.51,-20.45l-10.28,14.74l15,-7.68l0.52,2.28l0,15.17c-4.67,-0.62 -9.18,-2.07 -13.34,-4.27c-4.12,-2.11 -7.81,-4.96 -10.9,-8.4c-3.1,-3.52 -5.56,-7.57 -7.26,-11.94c-3.62,-9.12 -3.58,-19.29 0.1,-28.39c1.79,-4.44 4.4,-8.51 7.68,-12c3.19,-3.49 6.99,-6.37 11.21,-8.5c4.38,-2.16 9.13,-3.46 14,-3.84l-1.65,44.53l-28.75,-7.68l23.67,15.98z" fill="#000000" id="svg_3"/>
  </g>
 </g>
</svg>