<?xml version="1.0"?>
<svg width="220" height="115" xmlns="http://www.w3.org/2000/svg" xmlns:svg="http://www.w3.org/2000/svg" version="1.1">
 <g class="layer">
  <title>Layer 1</title>
  <g id="Layer_1">
   <path d="m57.27,0.29l-9.68,39.81l-47.59,-22.71l34,37.18l-30.65,16.14l31.33,5.15l-6.34,38.85l28.93,-29.77l27.73,27.5l-5.85,-36.95l30.85,-4.9l-27.26,-16.5l19.73,-27.62l-32.53,8.85l-12.67,-35.03zm0,72.58l-15.42,15.66l3.22,-19.61l-16,-2.51l17.93,-9.57l-13.52,-14.84l19.85,9.44l5.26,-21.14l5.62,15.54l17.09,-4.66l-11,15.42l15.3,9.21l-16.73,2.63l3.11,19l-14.71,-14.57z" fill="#000000" id="svg_1"/>
   <path d="m167.27,0.29l-9.68,39.81l-47.59,-22.71l34,37.18l-30.65,16.14l31.33,5.15l-6.34,38.85l28.93,-29.77l27.73,27.5l-5.85,-36.95l30.85,-4.9l-27.26,-16.5l19.73,-27.62l-32.53,8.85l-12.67,-35.03zm0,72.58l-15.42,15.66l3.22,-19.61l-16,-2.51l17.93,-9.57l-13.52,-14.84l19.85,9.44l5.26,-21.14l5.62,15.54l17.09,-4.66l-11,15.42l15.3,9.21l-16.73,2.63l3.11,19l-14.71,-14.57z" fill="#000000" id="svg_2"/>
  </g>
 </g>
</svg>