<?xml version="1.0" encoding="UTF-8"?>
<!DOCTYPE svg PUBLIC "-//W3C//DTD SVG 1.1//EN" "http://www.w3.org/Graphics/SVG/1.1/DTD/svg11.dtd">
<svg version="1.1" xmlns="http://www.w3.org/2000/svg" xmlns:xlink="http://www.w3.org/1999/xlink" x="0" y="0" width="110" height="115" viewBox="0, 0, 110, 115">
  <g id="Layer_1">
    <path d="M69,21.43 L77.24,6.76 L32.65,6.76 L41,21.43 z M30.91,27.43 L22.24,12.79 L0,51.35 L16.68,51.35 z M110,51.35 L87.76,12.79 L79.13,27.46 L93.13,51.35 z M41,33.49 L27.28,57.49 L41,81.51 L69,81.51 L82.6,57.51 L69,33.49 z M63.28,71.81 L46.6,71.81 L38.44,57.5 L46.6,43.07 L63.28,43.07 L71.44,57.5 z M0,63.53 L22.24,102.09 L30.63,87.42 L16.68,63.53 z M79.13,87.42 L87.76,102.09 L110,63.53 L93.09,63.53 z M41,93.46 L32.61,108.24 L77.24,108.24 L69,93.46 z" fill="#000000"/>
  </g>
</svg>
